<svg width="12" height="12" xmlns="http://www.w3.org/2000/svg"><g fill="#BCB5B9" fill-rule="evenodd"><path d="M4.328 3.606a.72.72 0 0 1-.784-.657L3.354.785a.722.722 0 0 1 .658-.783.721.721 0 0 1 .784.657l.19 2.163a.722.722 0 0 1-.658.783z"/><path d="M3.125 5.49a.723.723 0 0 1-1.02.09L.444 4.183a.723.723 0 1 1 .93-1.108L3.036 4.47a.723.723 0 0 1 .09 1.02z" opacity=".3"/><path d="M3.606 7.672a.72.72 0 0 1-.657.784l-2.164.19a.722.722 0 0 1-.783-.658.721.721 0 0 1 .657-.784l2.163-.19a.722.722 0 0 1 .783.658z" opacity=".4"/><path d="M5.49 8.875c.306.257.348.71.09 1.02l-1.396 1.662a.723.723 0 1 1-1.108-.93L4.47 8.964a.723.723 0 0 1 1.02-.09z" opacity=".5"/><path d="M7.672 8.394a.72.72 0 0 1 .784.657l.19 2.164a.722.722 0 0 1-.658.783.721.721 0 0 1-.784-.657l-.19-2.163a.722.722 0 0 1 .658-.783z" opacity=".6"/><path d="M8.875 6.51a.723.723 0 0 1 1.02-.09l1.662 1.396a.723.723 0 1 1-.93 1.108L8.964 7.53a.723.723 0 0 1-.09-1.02z" opacity=".7"/><path d="M8.394 4.328a.72.72 0 0 1 .657-.784l2.164-.19a.722.722 0 0 1 .783.658.721.721 0 0 1-.657.784l-2.163.19a.722.722 0 0 1-.783-.658z" opacity=".85"/><path d="M6.51 3.125a.723.723 0 0 1-.09-1.02L7.817.444a.723.723 0 1 1 1.108.93L7.53 3.036a.723.723 0 0 1-1.02.09z" opacity=".95"/></g></svg>