<svg width="12" height="12" xmlns="http://www.w3.org/2000/svg"><g fill="#FFF" fill-rule="evenodd"><path d="M3.976 3.606a.72.72 0 0 1-.784-.657L3.002.785A.723.723 0 0 1 4.444.66l.19 2.163a.722.722 0 0 1-.658.783z"/><path d="M2.94 5.584a.72.72 0 0 1-1.018.09L.26 4.278a.723.723 0 1 1 .93-1.108l1.66 1.395c.306.257.348.71.09 1.02z" opacity=".3"/><path d="M3.606 7.785a.72.72 0 0 1-.657.784l-2.164.188A.718.718 0 0 1 .003 8.1a.721.721 0 0 1 .657-.783l2.163-.19a.722.722 0 0 1 .783.658z" opacity=".4"/><path d="M5.21 8.795c.306.257.347.71.09 1.02l-1.397 1.662a.723.723 0 1 1-1.108-.93L4.19 8.884a.723.723 0 0 1 1.02-.09z" opacity=".5"/><path d="M7.41 8.253a.72.72 0 0 1 .784.657l.19 2.163a.722.722 0 0 1-.658.783.72.72 0 0 1-.784-.657l-.19-2.164a.722.722 0 0 1 .658-.783z" opacity=".6"/><path d="M8.795 6.634a.723.723 0 0 1 1.02-.09l1.662 1.396a.723.723 0 1 1-.93 1.11L8.884 7.652a.723.723 0 0 1-.09-1.02z" opacity=".7"/><path d="M8.253 4.35a.721.721 0 0 1 .657-.783l2.163-.19a.722.722 0 0 1 .783.658.72.72 0 0 1-.657.784l-2.164.188a.72.72 0 0 1-.783-.657z" opacity=".85"/><path d="M6.26 2.94a.718.718 0 0 1-.09-1.018L7.565.26a.724.724 0 0 1 1.11.93L7.277 2.85a.723.723 0 0 1-1.02.09z" opacity=".95"/></g></svg>